<?xml version="1.0" encoding="utf-8"?>
<!-- Generator: Adobe Illustrator 18.1.1, SVG Export Plug-In . SVG Version: 6.00 Build 0)  -->
<!DOCTYPE svg PUBLIC "-//W3C//DTD SVG 1.1//EN" "http://www.w3.org/Graphics/SVG/1.1/DTD/svg11.dtd">
<svg version="1.1" id="Layer_1" xmlns="http://www.w3.org/2000/svg" xmlns:xlink="http://www.w3.org/1999/xlink" x="0px" y="0px"
	 width="266.9px" height="266.9px" viewBox="0 0 266.9 266.9" style="enable-background:new 0 0 266.9 266.9;" xml:space="preserve"
	>
<path id="Blue_2_" style="fill:#387C2B;" d="M252.2,266.9c8.1,0,14.7-6.6,14.7-14.7V14.7c0-8.1-6.6-14.7-14.7-14.7H14.7
	C6.6,0,0,6.6,0,14.7v237.4c0,8.1,6.6,14.7,14.7,14.7H252.2z"/>
<path style="fill:#FFFFFF;" d="M224.6,76.9c-6.7,3-13.9,5-21.5,5.9c7.7-4.6,13.6-12,16.4-20.7c-7.2,4.3-15.2,7.4-23.7,9.1
	c-6.8-7.3-16.5-11.8-27.3-11.8c-20.6,0-37.4,16.7-37.4,37.4c0,2.9,0.3,5.8,1,8.5C101,103.7,73.5,88.9,55,66.2
	C51.8,71.8,50,78.2,50,85c0,13,6.6,24.4,16.6,31.1c-6.1-0.2-11.9-1.9-16.9-4.7c0,0.2,0,0.3,0,0.5c0,18.1,12.9,33.2,30,36.7
	c-3.1,0.9-6.4,1.3-9.9,1.3c-2.4,0-4.8-0.2-7-0.7c4.8,14.9,18.6,25.7,34.9,26c-12.8,10-28.9,16-46.4,16c-3,0-6-0.2-8.9-0.5
	c16.5,10.6,36.2,16.8,57.3,16.8c68.8,0,106.4-57,106.4-106.4c0-1.6,0-3.2-0.1-4.8C213.2,91,219.6,84.4,224.6,76.9z"/>
</svg>
